<?xml version="1.0" standalone="no"?>
<!DOCTYPE svg PUBLIC "-//W3C//DTD SVG 1.1//EN" "http://www.w3.org/Graphics/SVG/1.1/DTD/svg11.dtd">
<svg width="800" height="600" version="1.1" xmlns="http://www.w3.org/2000/svg">
<rect width="800" height="600" x="0" y="0" style="fill:rgb(238,238,238);stroke:none"/>
<rect width="800" height="600" x="0" y="0" style="fill:rgb(255,255,255);stroke:none"/>
<text x="2" y="566" fill="rgb(0,0,0)" font-family="Arial" font-size="12">0</text>
<text x="2" y="514" fill="rgb(0,0,0)" font-family="Arial" font-size="12">10</text>
<text x="2" y="462" fill="rgb(0,0,0)" font-family="Arial" font-size="12">20</text>
<text x="2" y="410" fill="rgb(0,0,0)" font-family="Arial" font-size="12">30</text>
<text x="2" y="358" fill="rgb(0,0,0)" font-family="Arial" font-size="12">40</text>
<text x="2" y="306" fill="rgb(0,0,0)" font-family="Arial" font-size="12">50</text>
<text x="2" y="254" fill="rgb(0,0,0)" font-family="Arial" font-size="12">60</text>
<text x="2" y="202" fill="rgb(0,0,0)" font-family="Arial" font-size="12">70</text>
<text x="2" y="150" fill="rgb(0,0,0)" font-family="Arial" font-size="12">80</text>
<text x="2" y="98" fill="rgb(0,0,0)" font-family="Arial" font-size="12">90</text>
<text x="2" y="46" fill="rgb(0,0,0)" font-family="Arial" font-size="12">100</text>
<text x="379" y="30" fill="rgb(0,0,0)" font-family="Arial" font-size="12">% Adapter</text>
<line x1="26" y1="560" x2="790" y2="560" stroke="rgb(0,0,0)" stroke-width="1"/>
<line x1="26" y1="560" x2="26" y2="40" stroke="rgb(0,0,0)" stroke-width="1"/>
<text x="345" y="595" fill="rgb(0,0,0)" font-family="Arial" font-size="12">Position in read (bp)</text>
<text x="30" y="575" fill="rgb(0,0,0)" font-family="Arial" font-size="12">1</text>
<rect width="15" height="520" x="41" y="40" style="fill:rgb(230,230,230);stroke:none"/>
<text x="45" y="575" fill="rgb(0,0,0)" font-family="Arial" font-size="12">2</text>
<text x="60" y="575" fill="rgb(0,0,0)" font-family="Arial" font-size="12">3</text>
<rect width="15" height="520" x="71" y="40" style="fill:rgb(230,230,230);stroke:none"/>
<text x="75" y="575" fill="rgb(0,0,0)" font-family="Arial" font-size="12">4</text>
<text x="90" y="575" fill="rgb(0,0,0)" font-family="Arial" font-size="12">5</text>
<rect width="15" height="520" x="101" y="40" style="fill:rgb(230,230,230);stroke:none"/>
<text x="105" y="575" fill="rgb(0,0,0)" font-family="Arial" font-size="12">6</text>
<text x="120" y="575" fill="rgb(0,0,0)" font-family="Arial" font-size="12">7</text>
<rect width="15" height="520" x="131" y="40" style="fill:rgb(230,230,230);stroke:none"/>
<text x="135" y="575" fill="rgb(0,0,0)" font-family="Arial" font-size="12">8</text>
<text x="150" y="575" fill="rgb(0,0,0)" font-family="Arial" font-size="12">9</text>
<rect width="15" height="520" x="161" y="40" style="fill:rgb(230,230,230);stroke:none"/>
<text x="167" y="575" fill="rgb(0,0,0)" font-family="Arial" font-size="12">12-13</text>
<rect width="15" height="520" x="191" y="40" style="fill:rgb(230,230,230);stroke:none"/>
<rect width="15" height="520" x="221" y="40" style="fill:rgb(230,230,230);stroke:none"/>
<text x="212" y="575" fill="rgb(0,0,0)" font-family="Arial" font-size="12">18-19</text>
<rect width="15" height="520" x="251" y="40" style="fill:rgb(230,230,230);stroke:none"/>
<text x="257" y="575" fill="rgb(0,0,0)" font-family="Arial" font-size="12">24-25</text>
<rect width="15" height="520" x="281" y="40" style="fill:rgb(230,230,230);stroke:none"/>
<rect width="15" height="520" x="311" y="40" style="fill:rgb(230,230,230);stroke:none"/>
<text x="302" y="575" fill="rgb(0,0,0)" font-family="Arial" font-size="12">30-31</text>
<rect width="15" height="520" x="341" y="40" style="fill:rgb(230,230,230);stroke:none"/>
<text x="347" y="575" fill="rgb(0,0,0)" font-family="Arial" font-size="12">36-37</text>
<rect width="15" height="520" x="371" y="40" style="fill:rgb(230,230,230);stroke:none"/>
<rect width="15" height="520" x="401" y="40" style="fill:rgb(230,230,230);stroke:none"/>
<text x="392" y="575" fill="rgb(0,0,0)" font-family="Arial" font-size="12">42-43</text>
<rect width="15" height="520" x="431" y="40" style="fill:rgb(230,230,230);stroke:none"/>
<text x="437" y="575" fill="rgb(0,0,0)" font-family="Arial" font-size="12">48-49</text>
<rect width="15" height="520" x="461" y="40" style="fill:rgb(230,230,230);stroke:none"/>
<rect width="15" height="520" x="491" y="40" style="fill:rgb(230,230,230);stroke:none"/>
<text x="482" y="575" fill="rgb(0,0,0)" font-family="Arial" font-size="12">54-55</text>
<rect width="15" height="520" x="521" y="40" style="fill:rgb(230,230,230);stroke:none"/>
<text x="527" y="575" fill="rgb(0,0,0)" font-family="Arial" font-size="12">60-61</text>
<rect width="15" height="520" x="551" y="40" style="fill:rgb(230,230,230);stroke:none"/>
<rect width="15" height="520" x="581" y="40" style="fill:rgb(230,230,230);stroke:none"/>
<text x="572" y="575" fill="rgb(0,0,0)" font-family="Arial" font-size="12">66-67</text>
<rect width="15" height="520" x="611" y="40" style="fill:rgb(230,230,230);stroke:none"/>
<text x="617" y="575" fill="rgb(0,0,0)" font-family="Arial" font-size="12">72-73</text>
<rect width="15" height="520" x="641" y="40" style="fill:rgb(230,230,230);stroke:none"/>
<rect width="15" height="520" x="671" y="40" style="fill:rgb(230,230,230);stroke:none"/>
<text x="662" y="575" fill="rgb(0,0,0)" font-family="Arial" font-size="12">78-79</text>
<rect width="15" height="520" x="701" y="40" style="fill:rgb(230,230,230);stroke:none"/>
<text x="707" y="575" fill="rgb(0,0,0)" font-family="Arial" font-size="12">84-85</text>
<rect width="15" height="520" x="731" y="40" style="fill:rgb(230,230,230);stroke:none"/>
<rect width="15" height="520" x="761" y="40" style="fill:rgb(230,230,230);stroke:none"/>
<text x="761" y="575" fill="rgb(0,0,0)" font-family="Arial" font-size="12">90</text>
<line x1="26" y1="560" x2="790" y2="560" stroke="rgb(180,180,180)" stroke-width="1"/>
<line x1="26" y1="508" x2="790" y2="508" stroke="rgb(180,180,180)" stroke-width="1"/>
<line x1="26" y1="456" x2="790" y2="456" stroke="rgb(180,180,180)" stroke-width="1"/>
<line x1="26" y1="404" x2="790" y2="404" stroke="rgb(180,180,180)" stroke-width="1"/>
<line x1="26" y1="352" x2="790" y2="352" stroke="rgb(180,180,180)" stroke-width="1"/>
<line x1="26" y1="300" x2="790" y2="300" stroke="rgb(180,180,180)" stroke-width="1"/>
<line x1="26" y1="248" x2="790" y2="248" stroke="rgb(180,180,180)" stroke-width="1"/>
<line x1="26" y1="196" x2="790" y2="196" stroke="rgb(180,180,180)" stroke-width="1"/>
<line x1="26" y1="144" x2="790" y2="144" stroke="rgb(180,180,180)" stroke-width="1"/>
<line x1="26" y1="92" x2="790" y2="92" stroke="rgb(180,180,180)" stroke-width="1"/>
<line x1="26" y1="40" x2="790" y2="40" stroke="rgb(180,180,180)" stroke-width="1"/>
<line x1="33" y1="560" x2="48" y2="560" stroke="rgb(136,34,85)" stroke-width="1"/>
<line x1="48" y1="560" x2="63" y2="560" stroke="rgb(136,34,85)" stroke-width="1"/>
<line x1="63" y1="560" x2="78" y2="560" stroke="rgb(136,34,85)" stroke-width="1"/>
<line x1="78" y1="560" x2="93" y2="560" stroke="rgb(136,34,85)" stroke-width="1"/>
<line x1="93" y1="560" x2="108" y2="560" stroke="rgb(136,34,85)" stroke-width="1"/>
<line x1="108" y1="560" x2="123" y2="560" stroke="rgb(136,34,85)" stroke-width="1"/>
<line x1="123" y1="560" x2="138" y2="560" stroke="rgb(136,34,85)" stroke-width="1"/>
<line x1="138" y1="560" x2="153" y2="560" stroke="rgb(136,34,85)" stroke-width="1"/>
<line x1="153" y1="560" x2="168" y2="560" stroke="rgb(136,34,85)" stroke-width="1"/>
<line x1="168" y1="560" x2="183" y2="560" stroke="rgb(136,34,85)" stroke-width="1"/>
<line x1="183" y1="560" x2="198" y2="560" stroke="rgb(136,34,85)" stroke-width="1"/>
<line x1="198" y1="560" x2="213" y2="560" stroke="rgb(136,34,85)" stroke-width="1"/>
<line x1="213" y1="560" x2="228" y2="560" stroke="rgb(136,34,85)" stroke-width="1"/>
<line x1="228" y1="560" x2="243" y2="560" stroke="rgb(136,34,85)" stroke-width="1"/>
<line x1="243" y1="560" x2="258" y2="560" stroke="rgb(136,34,85)" stroke-width="1"/>
<line x1="258" y1="560" x2="273" y2="560" stroke="rgb(136,34,85)" stroke-width="1"/>
<line x1="273" y1="560" x2="288" y2="560" stroke="rgb(136,34,85)" stroke-width="1"/>
<line x1="288" y1="560" x2="303" y2="560" stroke="rgb(136,34,85)" stroke-width="1"/>
<line x1="303" y1="560" x2="318" y2="560" stroke="rgb(136,34,85)" stroke-width="1"/>
<line x1="318" y1="560" x2="333" y2="560" stroke="rgb(136,34,85)" stroke-width="1"/>
<line x1="333" y1="560" x2="348" y2="560" stroke="rgb(136,34,85)" stroke-width="1"/>
<line x1="348" y1="560" x2="363" y2="560" stroke="rgb(136,34,85)" stroke-width="1"/>
<line x1="363" y1="560" x2="378" y2="560" stroke="rgb(136,34,85)" stroke-width="1"/>
<line x1="378" y1="560" x2="393" y2="560" stroke="rgb(136,34,85)" stroke-width="1"/>
<line x1="393" y1="560" x2="408" y2="560" stroke="rgb(136,34,85)" stroke-width="1"/>
<line x1="408" y1="560" x2="423" y2="560" stroke="rgb(136,34,85)" stroke-width="1"/>
<line x1="423" y1="560" x2="438" y2="560" stroke="rgb(136,34,85)" stroke-width="1"/>
<line x1="438" y1="560" x2="453" y2="560" stroke="rgb(136,34,85)" stroke-width="1"/>
<line x1="453" y1="560" x2="468" y2="560" stroke="rgb(136,34,85)" stroke-width="1"/>
<line x1="468" y1="560" x2="483" y2="560" stroke="rgb(136,34,85)" stroke-width="1"/>
<line x1="483" y1="560" x2="498" y2="560" stroke="rgb(136,34,85)" stroke-width="1"/>
<line x1="498" y1="560" x2="513" y2="560" stroke="rgb(136,34,85)" stroke-width="1"/>
<line x1="513" y1="560" x2="528" y2="560" stroke="rgb(136,34,85)" stroke-width="1"/>
<line x1="528" y1="560" x2="543" y2="560" stroke="rgb(136,34,85)" stroke-width="1"/>
<line x1="543" y1="560" x2="558" y2="560" stroke="rgb(136,34,85)" stroke-width="1"/>
<line x1="558" y1="560" x2="573" y2="560" stroke="rgb(136,34,85)" stroke-width="1"/>
<line x1="573" y1="560" x2="588" y2="560" stroke="rgb(136,34,85)" stroke-width="1"/>
<line x1="588" y1="560" x2="603" y2="560" stroke="rgb(136,34,85)" stroke-width="1"/>
<line x1="603" y1="560" x2="618" y2="560" stroke="rgb(136,34,85)" stroke-width="1"/>
<line x1="618" y1="560" x2="633" y2="560" stroke="rgb(136,34,85)" stroke-width="1"/>
<line x1="633" y1="560" x2="648" y2="560" stroke="rgb(136,34,85)" stroke-width="1"/>
<line x1="648" y1="560" x2="663" y2="560" stroke="rgb(136,34,85)" stroke-width="1"/>
<line x1="663" y1="560" x2="678" y2="560" stroke="rgb(136,34,85)" stroke-width="1"/>
<line x1="678" y1="560" x2="693" y2="560" stroke="rgb(136,34,85)" stroke-width="1"/>
<line x1="693" y1="560" x2="708" y2="559" stroke="rgb(136,34,85)" stroke-width="1"/>
<line x1="708" y1="559" x2="723" y2="559" stroke="rgb(136,34,85)" stroke-width="1"/>
<line x1="723" y1="559" x2="738" y2="558" stroke="rgb(136,34,85)" stroke-width="1"/>
<line x1="738" y1="558" x2="753" y2="557" stroke="rgb(136,34,85)" stroke-width="1"/>
<line x1="753" y1="557" x2="768" y2="556" stroke="rgb(136,34,85)" stroke-width="1"/>
<line x1="33" y1="560" x2="48" y2="560" stroke="rgb(51,34,136)" stroke-width="1"/>
<line x1="48" y1="560" x2="63" y2="560" stroke="rgb(51,34,136)" stroke-width="1"/>
<line x1="63" y1="560" x2="78" y2="560" stroke="rgb(51,34,136)" stroke-width="1"/>
<line x1="78" y1="560" x2="93" y2="560" stroke="rgb(51,34,136)" stroke-width="1"/>
<line x1="93" y1="560" x2="108" y2="560" stroke="rgb(51,34,136)" stroke-width="1"/>
<line x1="108" y1="560" x2="123" y2="560" stroke="rgb(51,34,136)" stroke-width="1"/>
<line x1="123" y1="560" x2="138" y2="560" stroke="rgb(51,34,136)" stroke-width="1"/>
<line x1="138" y1="560" x2="153" y2="560" stroke="rgb(51,34,136)" stroke-width="1"/>
<line x1="153" y1="560" x2="168" y2="560" stroke="rgb(51,34,136)" stroke-width="1"/>
<line x1="168" y1="560" x2="183" y2="560" stroke="rgb(51,34,136)" stroke-width="1"/>
<line x1="183" y1="560" x2="198" y2="560" stroke="rgb(51,34,136)" stroke-width="1"/>
<line x1="198" y1="560" x2="213" y2="560" stroke="rgb(51,34,136)" stroke-width="1"/>
<line x1="213" y1="560" x2="228" y2="560" stroke="rgb(51,34,136)" stroke-width="1"/>
<line x1="228" y1="560" x2="243" y2="560" stroke="rgb(51,34,136)" stroke-width="1"/>
<line x1="243" y1="560" x2="258" y2="560" stroke="rgb(51,34,136)" stroke-width="1"/>
<line x1="258" y1="560" x2="273" y2="560" stroke="rgb(51,34,136)" stroke-width="1"/>
<line x1="273" y1="560" x2="288" y2="560" stroke="rgb(51,34,136)" stroke-width="1"/>
<line x1="288" y1="560" x2="303" y2="560" stroke="rgb(51,34,136)" stroke-width="1"/>
<line x1="303" y1="560" x2="318" y2="560" stroke="rgb(51,34,136)" stroke-width="1"/>
<line x1="318" y1="560" x2="333" y2="560" stroke="rgb(51,34,136)" stroke-width="1"/>
<line x1="333" y1="560" x2="348" y2="560" stroke="rgb(51,34,136)" stroke-width="1"/>
<line x1="348" y1="560" x2="363" y2="560" stroke="rgb(51,34,136)" stroke-width="1"/>
<line x1="363" y1="560" x2="378" y2="560" stroke="rgb(51,34,136)" stroke-width="1"/>
<line x1="378" y1="560" x2="393" y2="560" stroke="rgb(51,34,136)" stroke-width="1"/>
<line x1="393" y1="560" x2="408" y2="560" stroke="rgb(51,34,136)" stroke-width="1"/>
<line x1="408" y1="560" x2="423" y2="560" stroke="rgb(51,34,136)" stroke-width="1"/>
<line x1="423" y1="560" x2="438" y2="560" stroke="rgb(51,34,136)" stroke-width="1"/>
<line x1="438" y1="560" x2="453" y2="560" stroke="rgb(51,34,136)" stroke-width="1"/>
<line x1="453" y1="560" x2="468" y2="560" stroke="rgb(51,34,136)" stroke-width="1"/>
<line x1="468" y1="560" x2="483" y2="560" stroke="rgb(51,34,136)" stroke-width="1"/>
<line x1="483" y1="560" x2="498" y2="560" stroke="rgb(51,34,136)" stroke-width="1"/>
<line x1="498" y1="560" x2="513" y2="560" stroke="rgb(51,34,136)" stroke-width="1"/>
<line x1="513" y1="560" x2="528" y2="560" stroke="rgb(51,34,136)" stroke-width="1"/>
<line x1="528" y1="560" x2="543" y2="560" stroke="rgb(51,34,136)" stroke-width="1"/>
<line x1="543" y1="560" x2="558" y2="560" stroke="rgb(51,34,136)" stroke-width="1"/>
<line x1="558" y1="560" x2="573" y2="560" stroke="rgb(51,34,136)" stroke-width="1"/>
<line x1="573" y1="560" x2="588" y2="560" stroke="rgb(51,34,136)" stroke-width="1"/>
<line x1="588" y1="560" x2="603" y2="560" stroke="rgb(51,34,136)" stroke-width="1"/>
<line x1="603" y1="560" x2="618" y2="560" stroke="rgb(51,34,136)" stroke-width="1"/>
<line x1="618" y1="560" x2="633" y2="560" stroke="rgb(51,34,136)" stroke-width="1"/>
<line x1="633" y1="560" x2="648" y2="560" stroke="rgb(51,34,136)" stroke-width="1"/>
<line x1="648" y1="560" x2="663" y2="560" stroke="rgb(51,34,136)" stroke-width="1"/>
<line x1="663" y1="560" x2="678" y2="560" stroke="rgb(51,34,136)" stroke-width="1"/>
<line x1="678" y1="560" x2="693" y2="560" stroke="rgb(51,34,136)" stroke-width="1"/>
<line x1="693" y1="560" x2="708" y2="560" stroke="rgb(51,34,136)" stroke-width="1"/>
<line x1="708" y1="560" x2="723" y2="560" stroke="rgb(51,34,136)" stroke-width="1"/>
<line x1="723" y1="560" x2="738" y2="560" stroke="rgb(51,34,136)" stroke-width="1"/>
<line x1="738" y1="560" x2="753" y2="560" stroke="rgb(51,34,136)" stroke-width="1"/>
<line x1="753" y1="560" x2="768" y2="560" stroke="rgb(51,34,136)" stroke-width="1"/>
<line x1="33" y1="560" x2="48" y2="560" stroke="rgb(17,119,51)" stroke-width="1"/>
<line x1="48" y1="560" x2="63" y2="560" stroke="rgb(17,119,51)" stroke-width="1"/>
<line x1="63" y1="560" x2="78" y2="560" stroke="rgb(17,119,51)" stroke-width="1"/>
<line x1="78" y1="560" x2="93" y2="560" stroke="rgb(17,119,51)" stroke-width="1"/>
<line x1="93" y1="560" x2="108" y2="560" stroke="rgb(17,119,51)" stroke-width="1"/>
<line x1="108" y1="560" x2="123" y2="560" stroke="rgb(17,119,51)" stroke-width="1"/>
<line x1="123" y1="560" x2="138" y2="560" stroke="rgb(17,119,51)" stroke-width="1"/>
<line x1="138" y1="560" x2="153" y2="560" stroke="rgb(17,119,51)" stroke-width="1"/>
<line x1="153" y1="560" x2="168" y2="560" stroke="rgb(17,119,51)" stroke-width="1"/>
<line x1="168" y1="560" x2="183" y2="560" stroke="rgb(17,119,51)" stroke-width="1"/>
<line x1="183" y1="560" x2="198" y2="560" stroke="rgb(17,119,51)" stroke-width="1"/>
<line x1="198" y1="560" x2="213" y2="560" stroke="rgb(17,119,51)" stroke-width="1"/>
<line x1="213" y1="560" x2="228" y2="560" stroke="rgb(17,119,51)" stroke-width="1"/>
<line x1="228" y1="560" x2="243" y2="560" stroke="rgb(17,119,51)" stroke-width="1"/>
<line x1="243" y1="560" x2="258" y2="560" stroke="rgb(17,119,51)" stroke-width="1"/>
<line x1="258" y1="560" x2="273" y2="560" stroke="rgb(17,119,51)" stroke-width="1"/>
<line x1="273" y1="560" x2="288" y2="560" stroke="rgb(17,119,51)" stroke-width="1"/>
<line x1="288" y1="560" x2="303" y2="560" stroke="rgb(17,119,51)" stroke-width="1"/>
<line x1="303" y1="560" x2="318" y2="560" stroke="rgb(17,119,51)" stroke-width="1"/>
<line x1="318" y1="560" x2="333" y2="560" stroke="rgb(17,119,51)" stroke-width="1"/>
<line x1="333" y1="560" x2="348" y2="560" stroke="rgb(17,119,51)" stroke-width="1"/>
<line x1="348" y1="560" x2="363" y2="560" stroke="rgb(17,119,51)" stroke-width="1"/>
<line x1="363" y1="560" x2="378" y2="560" stroke="rgb(17,119,51)" stroke-width="1"/>
<line x1="378" y1="560" x2="393" y2="560" stroke="rgb(17,119,51)" stroke-width="1"/>
<line x1="393" y1="560" x2="408" y2="560" stroke="rgb(17,119,51)" stroke-width="1"/>
<line x1="408" y1="560" x2="423" y2="560" stroke="rgb(17,119,51)" stroke-width="1"/>
<line x1="423" y1="560" x2="438" y2="560" stroke="rgb(17,119,51)" stroke-width="1"/>
<line x1="438" y1="560" x2="453" y2="560" stroke="rgb(17,119,51)" stroke-width="1"/>
<line x1="453" y1="560" x2="468" y2="560" stroke="rgb(17,119,51)" stroke-width="1"/>
<line x1="468" y1="560" x2="483" y2="560" stroke="rgb(17,119,51)" stroke-width="1"/>
<line x1="483" y1="560" x2="498" y2="560" stroke="rgb(17,119,51)" stroke-width="1"/>
<line x1="498" y1="560" x2="513" y2="560" stroke="rgb(17,119,51)" stroke-width="1"/>
<line x1="513" y1="560" x2="528" y2="560" stroke="rgb(17,119,51)" stroke-width="1"/>
<line x1="528" y1="560" x2="543" y2="560" stroke="rgb(17,119,51)" stroke-width="1"/>
<line x1="543" y1="560" x2="558" y2="560" stroke="rgb(17,119,51)" stroke-width="1"/>
<line x1="558" y1="560" x2="573" y2="560" stroke="rgb(17,119,51)" stroke-width="1"/>
<line x1="573" y1="560" x2="588" y2="560" stroke="rgb(17,119,51)" stroke-width="1"/>
<line x1="588" y1="560" x2="603" y2="560" stroke="rgb(17,119,51)" stroke-width="1"/>
<line x1="603" y1="560" x2="618" y2="560" stroke="rgb(17,119,51)" stroke-width="1"/>
<line x1="618" y1="560" x2="633" y2="560" stroke="rgb(17,119,51)" stroke-width="1"/>
<line x1="633" y1="560" x2="648" y2="560" stroke="rgb(17,119,51)" stroke-width="1"/>
<line x1="648" y1="560" x2="663" y2="560" stroke="rgb(17,119,51)" stroke-width="1"/>
<line x1="663" y1="560" x2="678" y2="560" stroke="rgb(17,119,51)" stroke-width="1"/>
<line x1="678" y1="560" x2="693" y2="560" stroke="rgb(17,119,51)" stroke-width="1"/>
<line x1="693" y1="560" x2="708" y2="560" stroke="rgb(17,119,51)" stroke-width="1"/>
<line x1="708" y1="560" x2="723" y2="560" stroke="rgb(17,119,51)" stroke-width="1"/>
<line x1="723" y1="560" x2="738" y2="560" stroke="rgb(17,119,51)" stroke-width="1"/>
<line x1="738" y1="560" x2="753" y2="560" stroke="rgb(17,119,51)" stroke-width="1"/>
<line x1="753" y1="560" x2="768" y2="560" stroke="rgb(17,119,51)" stroke-width="1"/>
<line x1="33" y1="560" x2="48" y2="560" stroke="rgb(221,204,119)" stroke-width="1"/>
<line x1="48" y1="560" x2="63" y2="560" stroke="rgb(221,204,119)" stroke-width="1"/>
<line x1="63" y1="560" x2="78" y2="560" stroke="rgb(221,204,119)" stroke-width="1"/>
<line x1="78" y1="560" x2="93" y2="560" stroke="rgb(221,204,119)" stroke-width="1"/>
<line x1="93" y1="560" x2="108" y2="560" stroke="rgb(221,204,119)" stroke-width="1"/>
<line x1="108" y1="560" x2="123" y2="560" stroke="rgb(221,204,119)" stroke-width="1"/>
<line x1="123" y1="560" x2="138" y2="560" stroke="rgb(221,204,119)" stroke-width="1"/>
<line x1="138" y1="560" x2="153" y2="560" stroke="rgb(221,204,119)" stroke-width="1"/>
<line x1="153" y1="560" x2="168" y2="560" stroke="rgb(221,204,119)" stroke-width="1"/>
<line x1="168" y1="560" x2="183" y2="560" stroke="rgb(221,204,119)" stroke-width="1"/>
<line x1="183" y1="560" x2="198" y2="560" stroke="rgb(221,204,119)" stroke-width="1"/>
<line x1="198" y1="560" x2="213" y2="560" stroke="rgb(221,204,119)" stroke-width="1"/>
<line x1="213" y1="560" x2="228" y2="560" stroke="rgb(221,204,119)" stroke-width="1"/>
<line x1="228" y1="560" x2="243" y2="560" stroke="rgb(221,204,119)" stroke-width="1"/>
<line x1="243" y1="560" x2="258" y2="560" stroke="rgb(221,204,119)" stroke-width="1"/>
<line x1="258" y1="560" x2="273" y2="560" stroke="rgb(221,204,119)" stroke-width="1"/>
<line x1="273" y1="560" x2="288" y2="560" stroke="rgb(221,204,119)" stroke-width="1"/>
<line x1="288" y1="560" x2="303" y2="560" stroke="rgb(221,204,119)" stroke-width="1"/>
<line x1="303" y1="560" x2="318" y2="560" stroke="rgb(221,204,119)" stroke-width="1"/>
<line x1="318" y1="560" x2="333" y2="560" stroke="rgb(221,204,119)" stroke-width="1"/>
<line x1="333" y1="560" x2="348" y2="560" stroke="rgb(221,204,119)" stroke-width="1"/>
<line x1="348" y1="560" x2="363" y2="560" stroke="rgb(221,204,119)" stroke-width="1"/>
<line x1="363" y1="560" x2="378" y2="560" stroke="rgb(221,204,119)" stroke-width="1"/>
<line x1="378" y1="560" x2="393" y2="560" stroke="rgb(221,204,119)" stroke-width="1"/>
<line x1="393" y1="560" x2="408" y2="560" stroke="rgb(221,204,119)" stroke-width="1"/>
<line x1="408" y1="560" x2="423" y2="560" stroke="rgb(221,204,119)" stroke-width="1"/>
<line x1="423" y1="560" x2="438" y2="560" stroke="rgb(221,204,119)" stroke-width="1"/>
<line x1="438" y1="560" x2="453" y2="560" stroke="rgb(221,204,119)" stroke-width="1"/>
<line x1="453" y1="560" x2="468" y2="560" stroke="rgb(221,204,119)" stroke-width="1"/>
<line x1="468" y1="560" x2="483" y2="560" stroke="rgb(221,204,119)" stroke-width="1"/>
<line x1="483" y1="560" x2="498" y2="560" stroke="rgb(221,204,119)" stroke-width="1"/>
<line x1="498" y1="560" x2="513" y2="560" stroke="rgb(221,204,119)" stroke-width="1"/>
<line x1="513" y1="560" x2="528" y2="560" stroke="rgb(221,204,119)" stroke-width="1"/>
<line x1="528" y1="560" x2="543" y2="560" stroke="rgb(221,204,119)" stroke-width="1"/>
<line x1="543" y1="560" x2="558" y2="560" stroke="rgb(221,204,119)" stroke-width="1"/>
<line x1="558" y1="560" x2="573" y2="560" stroke="rgb(221,204,119)" stroke-width="1"/>
<line x1="573" y1="560" x2="588" y2="560" stroke="rgb(221,204,119)" stroke-width="1"/>
<line x1="588" y1="560" x2="603" y2="560" stroke="rgb(221,204,119)" stroke-width="1"/>
<line x1="603" y1="560" x2="618" y2="560" stroke="rgb(221,204,119)" stroke-width="1"/>
<line x1="618" y1="560" x2="633" y2="560" stroke="rgb(221,204,119)" stroke-width="1"/>
<line x1="633" y1="560" x2="648" y2="560" stroke="rgb(221,204,119)" stroke-width="1"/>
<line x1="648" y1="560" x2="663" y2="560" stroke="rgb(221,204,119)" stroke-width="1"/>
<line x1="663" y1="560" x2="678" y2="560" stroke="rgb(221,204,119)" stroke-width="1"/>
<line x1="678" y1="560" x2="693" y2="560" stroke="rgb(221,204,119)" stroke-width="1"/>
<line x1="693" y1="560" x2="708" y2="560" stroke="rgb(221,204,119)" stroke-width="1"/>
<line x1="708" y1="560" x2="723" y2="560" stroke="rgb(221,204,119)" stroke-width="1"/>
<line x1="723" y1="560" x2="738" y2="560" stroke="rgb(221,204,119)" stroke-width="1"/>
<line x1="738" y1="560" x2="753" y2="560" stroke="rgb(221,204,119)" stroke-width="1"/>
<line x1="753" y1="560" x2="768" y2="560" stroke="rgb(221,204,119)" stroke-width="1"/>
<line x1="33" y1="560" x2="48" y2="560" stroke="rgb(68,170,153)" stroke-width="1"/>
<line x1="48" y1="560" x2="63" y2="560" stroke="rgb(68,170,153)" stroke-width="1"/>
<line x1="63" y1="560" x2="78" y2="560" stroke="rgb(68,170,153)" stroke-width="1"/>
<line x1="78" y1="560" x2="93" y2="560" stroke="rgb(68,170,153)" stroke-width="1"/>
<line x1="93" y1="560" x2="108" y2="560" stroke="rgb(68,170,153)" stroke-width="1"/>
<line x1="108" y1="560" x2="123" y2="560" stroke="rgb(68,170,153)" stroke-width="1"/>
<line x1="123" y1="560" x2="138" y2="560" stroke="rgb(68,170,153)" stroke-width="1"/>
<line x1="138" y1="560" x2="153" y2="560" stroke="rgb(68,170,153)" stroke-width="1"/>
<line x1="153" y1="560" x2="168" y2="560" stroke="rgb(68,170,153)" stroke-width="1"/>
<line x1="168" y1="560" x2="183" y2="560" stroke="rgb(68,170,153)" stroke-width="1"/>
<line x1="183" y1="560" x2="198" y2="560" stroke="rgb(68,170,153)" stroke-width="1"/>
<line x1="198" y1="560" x2="213" y2="560" stroke="rgb(68,170,153)" stroke-width="1"/>
<line x1="213" y1="560" x2="228" y2="560" stroke="rgb(68,170,153)" stroke-width="1"/>
<line x1="228" y1="560" x2="243" y2="560" stroke="rgb(68,170,153)" stroke-width="1"/>
<line x1="243" y1="560" x2="258" y2="560" stroke="rgb(68,170,153)" stroke-width="1"/>
<line x1="258" y1="560" x2="273" y2="560" stroke="rgb(68,170,153)" stroke-width="1"/>
<line x1="273" y1="560" x2="288" y2="560" stroke="rgb(68,170,153)" stroke-width="1"/>
<line x1="288" y1="560" x2="303" y2="559" stroke="rgb(68,170,153)" stroke-width="1"/>
<line x1="303" y1="559" x2="318" y2="559" stroke="rgb(68,170,153)" stroke-width="1"/>
<line x1="318" y1="559" x2="333" y2="559" stroke="rgb(68,170,153)" stroke-width="1"/>
<line x1="333" y1="559" x2="348" y2="559" stroke="rgb(68,170,153)" stroke-width="1"/>
<line x1="348" y1="559" x2="363" y2="559" stroke="rgb(68,170,153)" stroke-width="1"/>
<line x1="363" y1="559" x2="378" y2="559" stroke="rgb(68,170,153)" stroke-width="1"/>
<line x1="378" y1="559" x2="393" y2="559" stroke="rgb(68,170,153)" stroke-width="1"/>
<line x1="393" y1="559" x2="408" y2="559" stroke="rgb(68,170,153)" stroke-width="1"/>
<line x1="408" y1="559" x2="423" y2="559" stroke="rgb(68,170,153)" stroke-width="1"/>
<line x1="423" y1="559" x2="438" y2="559" stroke="rgb(68,170,153)" stroke-width="1"/>
<line x1="438" y1="559" x2="453" y2="559" stroke="rgb(68,170,153)" stroke-width="1"/>
<line x1="453" y1="559" x2="468" y2="559" stroke="rgb(68,170,153)" stroke-width="1"/>
<line x1="468" y1="559" x2="483" y2="559" stroke="rgb(68,170,153)" stroke-width="1"/>
<line x1="483" y1="559" x2="498" y2="559" stroke="rgb(68,170,153)" stroke-width="1"/>
<line x1="498" y1="559" x2="513" y2="559" stroke="rgb(68,170,153)" stroke-width="1"/>
<line x1="513" y1="559" x2="528" y2="559" stroke="rgb(68,170,153)" stroke-width="1"/>
<line x1="528" y1="559" x2="543" y2="559" stroke="rgb(68,170,153)" stroke-width="1"/>
<line x1="543" y1="559" x2="558" y2="559" stroke="rgb(68,170,153)" stroke-width="1"/>
<line x1="558" y1="559" x2="573" y2="559" stroke="rgb(68,170,153)" stroke-width="1"/>
<line x1="573" y1="559" x2="588" y2="559" stroke="rgb(68,170,153)" stroke-width="1"/>
<line x1="588" y1="559" x2="603" y2="559" stroke="rgb(68,170,153)" stroke-width="1"/>
<line x1="603" y1="559" x2="618" y2="559" stroke="rgb(68,170,153)" stroke-width="1"/>
<line x1="618" y1="559" x2="633" y2="559" stroke="rgb(68,170,153)" stroke-width="1"/>
<line x1="633" y1="559" x2="648" y2="559" stroke="rgb(68,170,153)" stroke-width="1"/>
<line x1="648" y1="559" x2="663" y2="559" stroke="rgb(68,170,153)" stroke-width="1"/>
<line x1="663" y1="559" x2="678" y2="559" stroke="rgb(68,170,153)" stroke-width="1"/>
<line x1="678" y1="559" x2="693" y2="559" stroke="rgb(68,170,153)" stroke-width="1"/>
<line x1="693" y1="559" x2="708" y2="559" stroke="rgb(68,170,153)" stroke-width="1"/>
<line x1="708" y1="559" x2="723" y2="559" stroke="rgb(68,170,153)" stroke-width="1"/>
<line x1="723" y1="559" x2="738" y2="559" stroke="rgb(68,170,153)" stroke-width="1"/>
<line x1="738" y1="559" x2="753" y2="559" stroke="rgb(68,170,153)" stroke-width="1"/>
<line x1="753" y1="559" x2="768" y2="559" stroke="rgb(68,170,153)" stroke-width="1"/>
<line x1="33" y1="560" x2="48" y2="560" stroke="rgb(170,68,153)" stroke-width="1"/>
<line x1="48" y1="560" x2="63" y2="560" stroke="rgb(170,68,153)" stroke-width="1"/>
<line x1="63" y1="560" x2="78" y2="560" stroke="rgb(170,68,153)" stroke-width="1"/>
<line x1="78" y1="560" x2="93" y2="560" stroke="rgb(170,68,153)" stroke-width="1"/>
<line x1="93" y1="560" x2="108" y2="560" stroke="rgb(170,68,153)" stroke-width="1"/>
<line x1="108" y1="560" x2="123" y2="560" stroke="rgb(170,68,153)" stroke-width="1"/>
<line x1="123" y1="560" x2="138" y2="560" stroke="rgb(170,68,153)" stroke-width="1"/>
<line x1="138" y1="560" x2="153" y2="560" stroke="rgb(170,68,153)" stroke-width="1"/>
<line x1="153" y1="560" x2="168" y2="560" stroke="rgb(170,68,153)" stroke-width="1"/>
<line x1="168" y1="560" x2="183" y2="560" stroke="rgb(170,68,153)" stroke-width="1"/>
<line x1="183" y1="560" x2="198" y2="560" stroke="rgb(170,68,153)" stroke-width="1"/>
<line x1="198" y1="560" x2="213" y2="560" stroke="rgb(170,68,153)" stroke-width="1"/>
<line x1="213" y1="560" x2="228" y2="560" stroke="rgb(170,68,153)" stroke-width="1"/>
<line x1="228" y1="560" x2="243" y2="560" stroke="rgb(170,68,153)" stroke-width="1"/>
<line x1="243" y1="560" x2="258" y2="560" stroke="rgb(170,68,153)" stroke-width="1"/>
<line x1="258" y1="560" x2="273" y2="560" stroke="rgb(170,68,153)" stroke-width="1"/>
<line x1="273" y1="560" x2="288" y2="560" stroke="rgb(170,68,153)" stroke-width="1"/>
<line x1="288" y1="560" x2="303" y2="560" stroke="rgb(170,68,153)" stroke-width="1"/>
<line x1="303" y1="560" x2="318" y2="560" stroke="rgb(170,68,153)" stroke-width="1"/>
<line x1="318" y1="560" x2="333" y2="560" stroke="rgb(170,68,153)" stroke-width="1"/>
<line x1="333" y1="560" x2="348" y2="560" stroke="rgb(170,68,153)" stroke-width="1"/>
<line x1="348" y1="560" x2="363" y2="560" stroke="rgb(170,68,153)" stroke-width="1"/>
<line x1="363" y1="560" x2="378" y2="560" stroke="rgb(170,68,153)" stroke-width="1"/>
<line x1="378" y1="560" x2="393" y2="560" stroke="rgb(170,68,153)" stroke-width="1"/>
<line x1="393" y1="560" x2="408" y2="560" stroke="rgb(170,68,153)" stroke-width="1"/>
<line x1="408" y1="560" x2="423" y2="560" stroke="rgb(170,68,153)" stroke-width="1"/>
<line x1="423" y1="560" x2="438" y2="560" stroke="rgb(170,68,153)" stroke-width="1"/>
<line x1="438" y1="560" x2="453" y2="560" stroke="rgb(170,68,153)" stroke-width="1"/>
<line x1="453" y1="560" x2="468" y2="560" stroke="rgb(170,68,153)" stroke-width="1"/>
<line x1="468" y1="560" x2="483" y2="560" stroke="rgb(170,68,153)" stroke-width="1"/>
<line x1="483" y1="560" x2="498" y2="560" stroke="rgb(170,68,153)" stroke-width="1"/>
<line x1="498" y1="560" x2="513" y2="560" stroke="rgb(170,68,153)" stroke-width="1"/>
<line x1="513" y1="560" x2="528" y2="560" stroke="rgb(170,68,153)" stroke-width="1"/>
<line x1="528" y1="560" x2="543" y2="560" stroke="rgb(170,68,153)" stroke-width="1"/>
<line x1="543" y1="560" x2="558" y2="560" stroke="rgb(170,68,153)" stroke-width="1"/>
<line x1="558" y1="560" x2="573" y2="560" stroke="rgb(170,68,153)" stroke-width="1"/>
<line x1="573" y1="560" x2="588" y2="560" stroke="rgb(170,68,153)" stroke-width="1"/>
<line x1="588" y1="560" x2="603" y2="560" stroke="rgb(170,68,153)" stroke-width="1"/>
<line x1="603" y1="560" x2="618" y2="560" stroke="rgb(170,68,153)" stroke-width="1"/>
<line x1="618" y1="560" x2="633" y2="560" stroke="rgb(170,68,153)" stroke-width="1"/>
<line x1="633" y1="560" x2="648" y2="560" stroke="rgb(170,68,153)" stroke-width="1"/>
<line x1="648" y1="560" x2="663" y2="560" stroke="rgb(170,68,153)" stroke-width="1"/>
<line x1="663" y1="560" x2="678" y2="560" stroke="rgb(170,68,153)" stroke-width="1"/>
<line x1="678" y1="560" x2="693" y2="560" stroke="rgb(170,68,153)" stroke-width="1"/>
<line x1="693" y1="560" x2="708" y2="560" stroke="rgb(170,68,153)" stroke-width="1"/>
<line x1="708" y1="560" x2="723" y2="560" stroke="rgb(170,68,153)" stroke-width="1"/>
<line x1="723" y1="560" x2="738" y2="560" stroke="rgb(170,68,153)" stroke-width="1"/>
<line x1="738" y1="560" x2="753" y2="560" stroke="rgb(170,68,153)" stroke-width="1"/>
<line x1="753" y1="560" x2="768" y2="560" stroke="rgb(170,68,153)" stroke-width="1"/>
<rect width="192" height="123" x="598" y="40" style="fill:rgb(255,255,255);stroke:none"/>
<rect width="192" height="123" x="598" y="40" rx="0" ry="0" style="fill:none;stroke-width:1;stroke:rgb(192,192,192)"/>
<text x="601" y="55" fill="rgb(136,34,85)" font-family="Arial" font-size="12" font-weight="bold">Illumina Universal Adapter</text>
<text x="601" y="75" fill="rgb(51,34,136)" font-family="Arial" font-size="12" font-weight="bold">Illumina Small RNA 3' Adapter</text>
<text x="601" y="95" fill="rgb(17,119,51)" font-family="Arial" font-size="12" font-weight="bold">Illumina Small RNA 5' Adapter</text>
<text x="601" y="115" fill="rgb(221,204,119)" font-family="Arial" font-size="12" font-weight="bold">Nextera Transposase Sequence</text>
<text x="601" y="135" fill="rgb(68,170,153)" font-family="Arial" font-size="12" font-weight="bold">PolyA</text>
<text x="601" y="155" fill="rgb(170,68,153)" font-family="Arial" font-size="12" font-weight="bold">PolyG</text>
</svg>
