<?xml version="1.0" standalone="no"?>
<!DOCTYPE svg PUBLIC "-//W3C//DTD SVG 1.1//EN" "http://www.w3.org/Graphics/SVG/1.1/DTD/svg11.dtd">
<svg width="800" height="600" version="1.1" xmlns="http://www.w3.org/2000/svg">
<rect width="800" height="600" x="0" y="0" style="fill:rgb(238,238,238);stroke:none"/>
<rect width="800" height="600" x="0" y="0" style="fill:rgb(255,255,255);stroke:none"/>
<text x="2" y="566" fill="rgb(0,0,0)" font-family="Arial" font-size="12">0</text>
<text x="2" y="510" fill="rgb(0,0,0)" font-family="Arial" font-size="12">2000000</text>
<text x="2" y="454" fill="rgb(0,0,0)" font-family="Arial" font-size="12">4000000</text>
<text x="2" y="397" fill="rgb(0,0,0)" font-family="Arial" font-size="12">6000000</text>
<text x="2" y="341" fill="rgb(0,0,0)" font-family="Arial" font-size="12">8000000</text>
<text x="2" y="284" fill="rgb(0,0,0)" font-family="Arial" font-size="12">1.0E7</text>
<text x="2" y="228" fill="rgb(0,0,0)" font-family="Arial" font-size="12">1.2E7</text>
<text x="2" y="171" fill="rgb(0,0,0)" font-family="Arial" font-size="12">1.4E7</text>
<text x="2" y="115" fill="rgb(0,0,0)" font-family="Arial" font-size="12">1.6E7</text>
<text x="2" y="58" fill="rgb(0,0,0)" font-family="Arial" font-size="12">1.8E7</text>
<text x="299" y="30" fill="rgb(0,0,0)" font-family="Arial" font-size="12">Quality score distribution over all sequences</text>
<line x1="54" y1="560" x2="790" y2="560" stroke="rgb(0,0,0)" stroke-width="1"/>
<line x1="54" y1="560" x2="54" y2="40" stroke="rgb(0,0,0)" stroke-width="1"/>
<text x="295" y="595" fill="rgb(0,0,0)" font-family="Arial" font-size="12">Mean Sequence Quality (Phred Score)</text>
<text x="60" y="575" fill="rgb(0,0,0)" font-family="Arial" font-size="12">3</text>
<rect width="19" height="520" x="73" y="40" style="fill:rgb(230,230,230);stroke:none"/>
<text x="79" y="575" fill="rgb(0,0,0)" font-family="Arial" font-size="12">4</text>
<text x="98" y="575" fill="rgb(0,0,0)" font-family="Arial" font-size="12">5</text>
<rect width="19" height="520" x="111" y="40" style="fill:rgb(230,230,230);stroke:none"/>
<text x="117" y="575" fill="rgb(0,0,0)" font-family="Arial" font-size="12">6</text>
<text x="136" y="575" fill="rgb(0,0,0)" font-family="Arial" font-size="12">7</text>
<rect width="19" height="520" x="149" y="40" style="fill:rgb(230,230,230);stroke:none"/>
<text x="155" y="575" fill="rgb(0,0,0)" font-family="Arial" font-size="12">8</text>
<text x="174" y="575" fill="rgb(0,0,0)" font-family="Arial" font-size="12">9</text>
<rect width="19" height="520" x="187" y="40" style="fill:rgb(230,230,230);stroke:none"/>
<text x="189" y="575" fill="rgb(0,0,0)" font-family="Arial" font-size="12">10</text>
<rect width="19" height="520" x="225" y="40" style="fill:rgb(230,230,230);stroke:none"/>
<text x="227" y="575" fill="rgb(0,0,0)" font-family="Arial" font-size="12">12</text>
<rect width="19" height="520" x="263" y="40" style="fill:rgb(230,230,230);stroke:none"/>
<text x="265" y="575" fill="rgb(0,0,0)" font-family="Arial" font-size="12">14</text>
<rect width="19" height="520" x="301" y="40" style="fill:rgb(230,230,230);stroke:none"/>
<text x="303" y="575" fill="rgb(0,0,0)" font-family="Arial" font-size="12">16</text>
<rect width="19" height="520" x="339" y="40" style="fill:rgb(230,230,230);stroke:none"/>
<text x="341" y="575" fill="rgb(0,0,0)" font-family="Arial" font-size="12">18</text>
<rect width="19" height="520" x="377" y="40" style="fill:rgb(230,230,230);stroke:none"/>
<text x="379" y="575" fill="rgb(0,0,0)" font-family="Arial" font-size="12">20</text>
<rect width="19" height="520" x="415" y="40" style="fill:rgb(230,230,230);stroke:none"/>
<text x="417" y="575" fill="rgb(0,0,0)" font-family="Arial" font-size="12">22</text>
<rect width="19" height="520" x="453" y="40" style="fill:rgb(230,230,230);stroke:none"/>
<text x="455" y="575" fill="rgb(0,0,0)" font-family="Arial" font-size="12">24</text>
<rect width="19" height="520" x="491" y="40" style="fill:rgb(230,230,230);stroke:none"/>
<text x="493" y="575" fill="rgb(0,0,0)" font-family="Arial" font-size="12">26</text>
<rect width="19" height="520" x="529" y="40" style="fill:rgb(230,230,230);stroke:none"/>
<text x="531" y="575" fill="rgb(0,0,0)" font-family="Arial" font-size="12">28</text>
<rect width="19" height="520" x="567" y="40" style="fill:rgb(230,230,230);stroke:none"/>
<text x="569" y="575" fill="rgb(0,0,0)" font-family="Arial" font-size="12">30</text>
<rect width="19" height="520" x="605" y="40" style="fill:rgb(230,230,230);stroke:none"/>
<text x="607" y="575" fill="rgb(0,0,0)" font-family="Arial" font-size="12">32</text>
<rect width="19" height="520" x="643" y="40" style="fill:rgb(230,230,230);stroke:none"/>
<text x="645" y="575" fill="rgb(0,0,0)" font-family="Arial" font-size="12">34</text>
<rect width="19" height="520" x="681" y="40" style="fill:rgb(230,230,230);stroke:none"/>
<text x="683" y="575" fill="rgb(0,0,0)" font-family="Arial" font-size="12">36</text>
<rect width="19" height="520" x="719" y="40" style="fill:rgb(230,230,230);stroke:none"/>
<text x="721" y="575" fill="rgb(0,0,0)" font-family="Arial" font-size="12">38</text>
<rect width="19" height="520" x="757" y="40" style="fill:rgb(230,230,230);stroke:none"/>
<text x="759" y="575" fill="rgb(0,0,0)" font-family="Arial" font-size="12">40</text>
<line x1="54" y1="560" x2="790" y2="560" stroke="rgb(180,180,180)" stroke-width="1"/>
<line x1="54" y1="504" x2="790" y2="504" stroke="rgb(180,180,180)" stroke-width="1"/>
<line x1="54" y1="448" x2="790" y2="448" stroke="rgb(180,180,180)" stroke-width="1"/>
<line x1="54" y1="391" x2="790" y2="391" stroke="rgb(180,180,180)" stroke-width="1"/>
<line x1="54" y1="335" x2="790" y2="335" stroke="rgb(180,180,180)" stroke-width="1"/>
<line x1="54" y1="278" x2="790" y2="278" stroke="rgb(180,180,180)" stroke-width="1"/>
<line x1="54" y1="222" x2="790" y2="222" stroke="rgb(180,180,180)" stroke-width="1"/>
<line x1="54" y1="165" x2="790" y2="165" stroke="rgb(180,180,180)" stroke-width="1"/>
<line x1="54" y1="109" x2="790" y2="109" stroke="rgb(180,180,180)" stroke-width="1"/>
<line x1="54" y1="52" x2="790" y2="52" stroke="rgb(180,180,180)" stroke-width="1"/>
<line x1="63" y1="560" x2="82" y2="560" stroke="rgb(136,34,85)" stroke-width="1"/>
<line x1="82" y1="560" x2="101" y2="560" stroke="rgb(136,34,85)" stroke-width="1"/>
<line x1="101" y1="560" x2="120" y2="560" stroke="rgb(136,34,85)" stroke-width="1"/>
<line x1="120" y1="560" x2="139" y2="560" stroke="rgb(136,34,85)" stroke-width="1"/>
<line x1="139" y1="560" x2="158" y2="560" stroke="rgb(136,34,85)" stroke-width="1"/>
<line x1="158" y1="560" x2="177" y2="560" stroke="rgb(136,34,85)" stroke-width="1"/>
<line x1="177" y1="560" x2="196" y2="560" stroke="rgb(136,34,85)" stroke-width="1"/>
<line x1="196" y1="560" x2="215" y2="559" stroke="rgb(136,34,85)" stroke-width="1"/>
<line x1="215" y1="559" x2="234" y2="559" stroke="rgb(136,34,85)" stroke-width="1"/>
<line x1="234" y1="559" x2="253" y2="558" stroke="rgb(136,34,85)" stroke-width="1"/>
<line x1="253" y1="558" x2="272" y2="558" stroke="rgb(136,34,85)" stroke-width="1"/>
<line x1="272" y1="558" x2="291" y2="557" stroke="rgb(136,34,85)" stroke-width="1"/>
<line x1="291" y1="557" x2="310" y2="556" stroke="rgb(136,34,85)" stroke-width="1"/>
<line x1="310" y1="556" x2="329" y2="555" stroke="rgb(136,34,85)" stroke-width="1"/>
<line x1="329" y1="555" x2="348" y2="554" stroke="rgb(136,34,85)" stroke-width="1"/>
<line x1="348" y1="554" x2="367" y2="553" stroke="rgb(136,34,85)" stroke-width="1"/>
<line x1="367" y1="553" x2="386" y2="552" stroke="rgb(136,34,85)" stroke-width="1"/>
<line x1="386" y1="552" x2="405" y2="551" stroke="rgb(136,34,85)" stroke-width="1"/>
<line x1="405" y1="551" x2="424" y2="550" stroke="rgb(136,34,85)" stroke-width="1"/>
<line x1="424" y1="550" x2="443" y2="548" stroke="rgb(136,34,85)" stroke-width="1"/>
<line x1="443" y1="548" x2="462" y2="546" stroke="rgb(136,34,85)" stroke-width="1"/>
<line x1="462" y1="546" x2="481" y2="544" stroke="rgb(136,34,85)" stroke-width="1"/>
<line x1="481" y1="544" x2="500" y2="541" stroke="rgb(136,34,85)" stroke-width="1"/>
<line x1="500" y1="541" x2="519" y2="537" stroke="rgb(136,34,85)" stroke-width="1"/>
<line x1="519" y1="537" x2="538" y2="533" stroke="rgb(136,34,85)" stroke-width="1"/>
<line x1="538" y1="533" x2="557" y2="528" stroke="rgb(136,34,85)" stroke-width="1"/>
<line x1="557" y1="528" x2="576" y2="521" stroke="rgb(136,34,85)" stroke-width="1"/>
<line x1="576" y1="521" x2="595" y2="512" stroke="rgb(136,34,85)" stroke-width="1"/>
<line x1="595" y1="512" x2="614" y2="501" stroke="rgb(136,34,85)" stroke-width="1"/>
<line x1="614" y1="501" x2="633" y2="485" stroke="rgb(136,34,85)" stroke-width="1"/>
<line x1="633" y1="485" x2="652" y2="460" stroke="rgb(136,34,85)" stroke-width="1"/>
<line x1="652" y1="460" x2="671" y2="419" stroke="rgb(136,34,85)" stroke-width="1"/>
<line x1="671" y1="419" x2="690" y2="333" stroke="rgb(136,34,85)" stroke-width="1"/>
<line x1="690" y1="333" x2="709" y2="172" stroke="rgb(136,34,85)" stroke-width="1"/>
<line x1="709" y1="172" x2="728" y2="40" stroke="rgb(136,34,85)" stroke-width="1"/>
<line x1="728" y1="40" x2="747" y2="375" stroke="rgb(136,34,85)" stroke-width="1"/>
<line x1="747" y1="375" x2="766" y2="560" stroke="rgb(136,34,85)" stroke-width="1"/>
<rect width="156" height="23" x="634" y="40" style="fill:rgb(255,255,255);stroke:none"/>
<rect width="156" height="23" x="634" y="40" rx="0" ry="0" style="fill:none;stroke-width:1;stroke:rgb(192,192,192)"/>
<text x="637" y="55" fill="rgb(136,34,85)" font-family="Arial" font-size="12" font-weight="bold">Average Quality per read</text>
</svg>
