<?xml version="1.0" standalone="no"?>
<!DOCTYPE svg PUBLIC "-//W3C//DTD SVG 1.1//EN" "http://www.w3.org/Graphics/SVG/1.1/DTD/svg11.dtd">
<svg width="800" height="600" version="1.1" xmlns="http://www.w3.org/2000/svg">
<rect width="800" height="600" x="0" y="0" style="fill:rgb(238,238,238);stroke:none"/>
<rect width="800" height="600" x="0" y="0" style="fill:rgb(255,255,255);stroke:none"/>
<text x="2" y="566" fill="rgb(0,0,0)" font-family="Arial" font-size="12">0</text>
<text x="2" y="502" fill="rgb(0,0,0)" font-family="Arial" font-size="12">2500000</text>
<text x="2" y="437" fill="rgb(0,0,0)" font-family="Arial" font-size="12">5000000</text>
<text x="2" y="372" fill="rgb(0,0,0)" font-family="Arial" font-size="12">7500000</text>
<text x="2" y="307" fill="rgb(0,0,0)" font-family="Arial" font-size="12">1.0E7</text>
<text x="2" y="242" fill="rgb(0,0,0)" font-family="Arial" font-size="12">1.25E7</text>
<text x="2" y="177" fill="rgb(0,0,0)" font-family="Arial" font-size="12">1.5E7</text>
<text x="2" y="112" fill="rgb(0,0,0)" font-family="Arial" font-size="12">1.75E7</text>
<text x="2" y="47" fill="rgb(0,0,0)" font-family="Arial" font-size="12">2.0E7</text>
<text x="299" y="30" fill="rgb(0,0,0)" font-family="Arial" font-size="12">Quality score distribution over all sequences</text>
<line x1="54" y1="560" x2="790" y2="560" stroke="rgb(0,0,0)" stroke-width="1"/>
<line x1="54" y1="560" x2="54" y2="40" stroke="rgb(0,0,0)" stroke-width="1"/>
<text x="295" y="595" fill="rgb(0,0,0)" font-family="Arial" font-size="12">Mean Sequence Quality (Phred Score)</text>
<text x="61" y="575" fill="rgb(0,0,0)" font-family="Arial" font-size="12">6</text>
<rect width="21" height="520" x="75" y="40" style="fill:rgb(230,230,230);stroke:none"/>
<text x="82" y="575" fill="rgb(0,0,0)" font-family="Arial" font-size="12">7</text>
<text x="103" y="575" fill="rgb(0,0,0)" font-family="Arial" font-size="12">8</text>
<rect width="21" height="520" x="117" y="40" style="fill:rgb(230,230,230);stroke:none"/>
<text x="124" y="575" fill="rgb(0,0,0)" font-family="Arial" font-size="12">9</text>
<text x="141" y="575" fill="rgb(0,0,0)" font-family="Arial" font-size="12">10</text>
<rect width="21" height="520" x="159" y="40" style="fill:rgb(230,230,230);stroke:none"/>
<text x="162" y="575" fill="rgb(0,0,0)" font-family="Arial" font-size="12">11</text>
<text x="183" y="575" fill="rgb(0,0,0)" font-family="Arial" font-size="12">12</text>
<rect width="21" height="520" x="201" y="40" style="fill:rgb(230,230,230);stroke:none"/>
<text x="204" y="575" fill="rgb(0,0,0)" font-family="Arial" font-size="12">13</text>
<text x="225" y="575" fill="rgb(0,0,0)" font-family="Arial" font-size="12">14</text>
<rect width="21" height="520" x="243" y="40" style="fill:rgb(230,230,230);stroke:none"/>
<text x="246" y="575" fill="rgb(0,0,0)" font-family="Arial" font-size="12">15</text>
<text x="267" y="575" fill="rgb(0,0,0)" font-family="Arial" font-size="12">16</text>
<rect width="21" height="520" x="285" y="40" style="fill:rgb(230,230,230);stroke:none"/>
<text x="288" y="575" fill="rgb(0,0,0)" font-family="Arial" font-size="12">17</text>
<text x="309" y="575" fill="rgb(0,0,0)" font-family="Arial" font-size="12">18</text>
<rect width="21" height="520" x="327" y="40" style="fill:rgb(230,230,230);stroke:none"/>
<text x="330" y="575" fill="rgb(0,0,0)" font-family="Arial" font-size="12">19</text>
<text x="351" y="575" fill="rgb(0,0,0)" font-family="Arial" font-size="12">20</text>
<rect width="21" height="520" x="369" y="40" style="fill:rgb(230,230,230);stroke:none"/>
<text x="372" y="575" fill="rgb(0,0,0)" font-family="Arial" font-size="12">21</text>
<text x="393" y="575" fill="rgb(0,0,0)" font-family="Arial" font-size="12">22</text>
<rect width="21" height="520" x="411" y="40" style="fill:rgb(230,230,230);stroke:none"/>
<text x="414" y="575" fill="rgb(0,0,0)" font-family="Arial" font-size="12">23</text>
<text x="435" y="575" fill="rgb(0,0,0)" font-family="Arial" font-size="12">24</text>
<rect width="21" height="520" x="453" y="40" style="fill:rgb(230,230,230);stroke:none"/>
<text x="456" y="575" fill="rgb(0,0,0)" font-family="Arial" font-size="12">25</text>
<text x="477" y="575" fill="rgb(0,0,0)" font-family="Arial" font-size="12">26</text>
<rect width="21" height="520" x="495" y="40" style="fill:rgb(230,230,230);stroke:none"/>
<text x="498" y="575" fill="rgb(0,0,0)" font-family="Arial" font-size="12">27</text>
<text x="519" y="575" fill="rgb(0,0,0)" font-family="Arial" font-size="12">28</text>
<rect width="21" height="520" x="537" y="40" style="fill:rgb(230,230,230);stroke:none"/>
<text x="540" y="575" fill="rgb(0,0,0)" font-family="Arial" font-size="12">29</text>
<text x="561" y="575" fill="rgb(0,0,0)" font-family="Arial" font-size="12">30</text>
<rect width="21" height="520" x="579" y="40" style="fill:rgb(230,230,230);stroke:none"/>
<text x="582" y="575" fill="rgb(0,0,0)" font-family="Arial" font-size="12">31</text>
<text x="603" y="575" fill="rgb(0,0,0)" font-family="Arial" font-size="12">32</text>
<rect width="21" height="520" x="621" y="40" style="fill:rgb(230,230,230);stroke:none"/>
<text x="624" y="575" fill="rgb(0,0,0)" font-family="Arial" font-size="12">33</text>
<text x="645" y="575" fill="rgb(0,0,0)" font-family="Arial" font-size="12">34</text>
<rect width="21" height="520" x="663" y="40" style="fill:rgb(230,230,230);stroke:none"/>
<text x="666" y="575" fill="rgb(0,0,0)" font-family="Arial" font-size="12">35</text>
<text x="687" y="575" fill="rgb(0,0,0)" font-family="Arial" font-size="12">36</text>
<rect width="21" height="520" x="705" y="40" style="fill:rgb(230,230,230);stroke:none"/>
<text x="708" y="575" fill="rgb(0,0,0)" font-family="Arial" font-size="12">37</text>
<text x="729" y="575" fill="rgb(0,0,0)" font-family="Arial" font-size="12">38</text>
<rect width="21" height="520" x="747" y="40" style="fill:rgb(230,230,230);stroke:none"/>
<text x="750" y="575" fill="rgb(0,0,0)" font-family="Arial" font-size="12">39</text>
<text x="771" y="575" fill="rgb(0,0,0)" font-family="Arial" font-size="12">40</text>
<line x1="54" y1="560" x2="790" y2="560" stroke="rgb(180,180,180)" stroke-width="1"/>
<line x1="54" y1="496" x2="790" y2="496" stroke="rgb(180,180,180)" stroke-width="1"/>
<line x1="54" y1="431" x2="790" y2="431" stroke="rgb(180,180,180)" stroke-width="1"/>
<line x1="54" y1="366" x2="790" y2="366" stroke="rgb(180,180,180)" stroke-width="1"/>
<line x1="54" y1="301" x2="790" y2="301" stroke="rgb(180,180,180)" stroke-width="1"/>
<line x1="54" y1="236" x2="790" y2="236" stroke="rgb(180,180,180)" stroke-width="1"/>
<line x1="54" y1="171" x2="790" y2="171" stroke="rgb(180,180,180)" stroke-width="1"/>
<line x1="54" y1="106" x2="790" y2="106" stroke="rgb(180,180,180)" stroke-width="1"/>
<line x1="54" y1="41" x2="790" y2="41" stroke="rgb(180,180,180)" stroke-width="1"/>
<line x1="64" y1="560" x2="85" y2="560" stroke="rgb(136,34,85)" stroke-width="1"/>
<line x1="85" y1="560" x2="106" y2="560" stroke="rgb(136,34,85)" stroke-width="1"/>
<line x1="106" y1="560" x2="127" y2="560" stroke="rgb(136,34,85)" stroke-width="1"/>
<line x1="127" y1="560" x2="148" y2="560" stroke="rgb(136,34,85)" stroke-width="1"/>
<line x1="148" y1="560" x2="169" y2="560" stroke="rgb(136,34,85)" stroke-width="1"/>
<line x1="169" y1="560" x2="190" y2="560" stroke="rgb(136,34,85)" stroke-width="1"/>
<line x1="190" y1="560" x2="211" y2="560" stroke="rgb(136,34,85)" stroke-width="1"/>
<line x1="211" y1="560" x2="232" y2="560" stroke="rgb(136,34,85)" stroke-width="1"/>
<line x1="232" y1="560" x2="253" y2="560" stroke="rgb(136,34,85)" stroke-width="1"/>
<line x1="253" y1="560" x2="274" y2="560" stroke="rgb(136,34,85)" stroke-width="1"/>
<line x1="274" y1="560" x2="295" y2="560" stroke="rgb(136,34,85)" stroke-width="1"/>
<line x1="295" y1="560" x2="316" y2="560" stroke="rgb(136,34,85)" stroke-width="1"/>
<line x1="316" y1="560" x2="337" y2="559" stroke="rgb(136,34,85)" stroke-width="1"/>
<line x1="337" y1="559" x2="358" y2="559" stroke="rgb(136,34,85)" stroke-width="1"/>
<line x1="358" y1="559" x2="379" y2="558" stroke="rgb(136,34,85)" stroke-width="1"/>
<line x1="379" y1="558" x2="400" y2="557" stroke="rgb(136,34,85)" stroke-width="1"/>
<line x1="400" y1="557" x2="421" y2="556" stroke="rgb(136,34,85)" stroke-width="1"/>
<line x1="421" y1="556" x2="442" y2="553" stroke="rgb(136,34,85)" stroke-width="1"/>
<line x1="442" y1="553" x2="463" y2="551" stroke="rgb(136,34,85)" stroke-width="1"/>
<line x1="463" y1="551" x2="484" y2="547" stroke="rgb(136,34,85)" stroke-width="1"/>
<line x1="484" y1="547" x2="505" y2="543" stroke="rgb(136,34,85)" stroke-width="1"/>
<line x1="505" y1="543" x2="526" y2="538" stroke="rgb(136,34,85)" stroke-width="1"/>
<line x1="526" y1="538" x2="547" y2="532" stroke="rgb(136,34,85)" stroke-width="1"/>
<line x1="547" y1="532" x2="568" y2="524" stroke="rgb(136,34,85)" stroke-width="1"/>
<line x1="568" y1="524" x2="589" y2="516" stroke="rgb(136,34,85)" stroke-width="1"/>
<line x1="589" y1="516" x2="610" y2="506" stroke="rgb(136,34,85)" stroke-width="1"/>
<line x1="610" y1="506" x2="631" y2="492" stroke="rgb(136,34,85)" stroke-width="1"/>
<line x1="631" y1="492" x2="652" y2="471" stroke="rgb(136,34,85)" stroke-width="1"/>
<line x1="652" y1="471" x2="673" y2="434" stroke="rgb(136,34,85)" stroke-width="1"/>
<line x1="673" y1="434" x2="694" y2="351" stroke="rgb(136,34,85)" stroke-width="1"/>
<line x1="694" y1="351" x2="715" y2="184" stroke="rgb(136,34,85)" stroke-width="1"/>
<line x1="715" y1="184" x2="736" y2="40" stroke="rgb(136,34,85)" stroke-width="1"/>
<line x1="736" y1="40" x2="757" y2="366" stroke="rgb(136,34,85)" stroke-width="1"/>
<line x1="757" y1="366" x2="778" y2="560" stroke="rgb(136,34,85)" stroke-width="1"/>
<rect width="156" height="23" x="634" y="40" style="fill:rgb(255,255,255);stroke:none"/>
<rect width="156" height="23" x="634" y="40" rx="0" ry="0" style="fill:none;stroke-width:1;stroke:rgb(192,192,192)"/>
<text x="637" y="55" fill="rgb(136,34,85)" font-family="Arial" font-size="12" font-weight="bold">Average Quality per read</text>
</svg>
